Coordinates
nRows=221
nColumns=2
inDegrees=yes
endheader
time	ankle_angle_r	
3.68726	  0.305176	
3.74976	  0.198364	
3.81226	  0.274658	
3.87475	  0.228882	
3.93725	  0.183105	
3.99974	  0.350952	
4.06224	  0.274658	
4.12474	  0.274658	
4.18723	  0.305176	
4.24973	  0.167847	
4.31222	  0.152588	
4.37472	  0.137329	
4.43722	  0.091553	
4.49971	  0.228882	
4.56221	  0.213623	
4.6247	  0.167847	
4.6872	  0.213623	
4.7497	  0.106812	
4.81219	  0.122070	
4.87469	  0.167847	
4.93718	  0.106812	
4.99968	  0.289917	
5.06218	  0.259399	
5.12467	  0.259399	
5.18717	  0.274658	
5.24966	  0.213623	
5.31216	  0.244141	
5.37466	  0.289917	
5.43715	  0.228882	
5.49965	  0.320435	
5.56214	  0.305176	
5.62464	  0.259399	
5.68714	  0.244141	
5.74963	  0.213623	
5.81213	  0.106812	
5.87462	  0.198364	
5.93712	  0.152588	
5.99962	  0.106812	
6.06211	  0.198364	
6.12461	  0.167847	
6.1871	  0.183105	
6.2496	  0.228882	
6.3121	  0.076294	
6.37459	  0.198364	
6.43709	  0.213623	
6.49958	  0.198364	
6.56208	  0.305176	
6.62458	  0.289917	
6.68707	  0.305176	
6.74957	  0.350952	
6.81206	  0.183105	
6.87456	  0.274658	
6.93706	  0.244141	
6.99955	  0.228882	
7.06205	  0.366211	
7.12454	  0.320435	
7.18704	  0.274658	
7.24954	  0.350952	
7.31203	  0.198364	
7.37453	  0.259399	
7.43702	  0.305176	
7.49952	  0.213623	
7.56202	  0.305176	
7.62451	  0.320435	
7.68701	  0.289917	
7.7495	  0.350952	
7.812	  0.228882	
7.8745	  0.213623	
7.93699	  0.198364	
7.99949	  0.183105	
8.06198	  0.152588	
8.12448	  0.228882	
8.18698	  0.167847	
8.24947	  0.183105	
8.31197	  0.183105	
8.37446	  0.137329	
8.43696	  0.137329	
8.49946	  0.152588	
8.56195	  0.122070	
8.62445	  0.274658	
8.68694	  0.213623	
8.74944	  0.289917	
8.81194	  0.289917	
8.87443	  0.167847	
8.93693	  0.228882	
8.99942	  0.228882	
9.06192	  0.167847	
9.12442	  0.350952	
9.18691	  0.305176	
9.24941	  0.289917	
9.3119	  0.305176	
9.3744	  0.137329	
9.4369	  0.137329	
9.49939	  0.167847	
9.56189	  0.091553	
9.62438	  0.259399	
9.68688	  0.183105	
9.74938	  0.198364	
9.81187	  0.244141	
9.87437	  0.137329	
9.93686	  0.137329	
9.99936	  0.167847	
10.0619	  0.152588	
10.1244	  0.289917	
10.1868	  0.274658	
10.2493	  0.274658	
10.3118	  0.305176	
10.3743	  0.244141	
10.4368	  0.213623	
10.4993	  0.274658	
10.5618	  0.244141	
10.6243	  0.213623	
10.6868	  0.335693	
10.7493	  0.259399	
10.8118	  0.289917	
10.8743	  0.305176	
10.9368	  0.137329	
10.9993	  0.167847	
11.0618	  0.122070	
11.1243	  0.106812	
11.1868	  0.213623	
11.2493	  0.167847	
11.3118	  0.167847	
11.3743	  0.274658	
11.4368	  0.091553	
11.4993	  0.167847	
11.5618	  0.152588	
11.6243	  0.183105	
11.6868	  0.335693	
11.7492	  0.320435	
11.8117	  0.244141	
11.8742	  0.350952	
11.9367	  0.213623	
11.9992	  0.228882	
12.0617	  0.274658	
12.1242	  0.228882	
12.1867	  0.320435	
12.2492	  0.335693	
12.3117	  0.228882	
12.3742	  0.244141	
12.4367	  0.183105	
12.4992	  0.137329	
12.5617	  0.167847	
12.6242	  0.122070	
12.6867	  0.122070	
12.7492	  0.213623	
12.8117	  0.167847	
12.8742	  0.213623	
12.9367	  0.198364	
12.9992	  0.106812	
13.0617	  0.183105	
13.1242	  0.213623	
13.1867	  0.152588	
13.2492	  0.320435	
13.3116	  0.274658	
13.3741	  0.335693	
13.4366	  0.335693	
13.4991	  0.183105	
13.5616	  0.259399	
13.6241	  0.228882	
13.6866	  0.183105	
13.7491	  0.350952	
13.8116	  0.213623	
13.8741	  0.198364	
13.9366	  0.244141	
13.9991	  0.106812	
14.0616	  0.122070	
14.1241	  0.198364	
14.1866	  0.091553	
14.2491	  0.213623	
14.3116	  0.198364	
14.3741	  0.152588	
14.4366	  0.228882	
14.4991	  0.137329	
14.5616	  0.198364	
14.6241	  0.244141	
14.6866	  0.213623	
14.7491	  0.244141	
14.8116	  0.320435	
14.874	  0.274658	
14.9365	  0.289917	
14.999	  0.335693	
15.0615	  0.198364	
15.124	  0.274658	
15.1865	  0.228882	
15.249	  0.183105	
15.3115	  0.259399	
15.374	  0.228882	
15.4365	  0.213623	
15.499	  0.228882	
15.5615	  0.076294	
15.624	  0.167847	
15.6865	  0.137329	
15.749	  0.106812	
15.8115	  0.228882	
15.874	  0.198364	
15.9365	  0.183105	
15.999	  0.274658	
16.0615	  0.167847	
16.124	  0.213623	
16.1865	  0.259399	
16.249	  0.198364	
16.3115	  0.320435	
16.374	  0.274658	
16.4364	  0.289917	
16.4989	  0.305176	
16.5614	  0.259399	
16.6239	  0.244141	
16.6864	  0.244141	
16.7489	  0.183105	
16.8114	  0.198364	
16.8739	  0.274658	
16.9364	  0.183105	
16.9989	  0.183105	
17.0614	  0.198364	
17.1239	  0.091553	
17.1864	  0.167847	
17.2489	  0.091553	
17.3114	  0.122070	
17.3739	  0.244141	
17.4364	  0.213623	
